<svg width="406" height="498" viewBox="0 0 406 498" fill="none" xmlns="http://www.w3.org/2000/svg">
<path d="M338.62 264.54C339.316 339.74 404.596 364.768 405.316 365.088C404.764 366.848 394.888 400.752 370.928 435.764C350.216 466.036 328.716 496.196 294.856 496.828C261.584 497.436 250.884 477.092 212.84 477.092C174.808 477.092 162.924 496.196 131.424 497.436C98.7361 498.676 73.8441 464.696 52.9601 434.54C10.2881 372.844 -22.3239 260.2 21.4641 184.164C43.2161 146.404 82.0961 122.496 124.292 121.88C156.388 121.268 186.684 143.472 206.304 143.472C225.912 143.472 262.728 116.768 301.432 120.688C317.636 121.364 363.116 127.232 392.32 169.984C389.972 171.444 338.056 201.668 338.62 264.54ZM276.088 79.876C293.44 58.872 305.12 29.624 301.936 0.531982C276.92 1.53598 246.672 17.2 228.732 38.196C212.652 56.784 198.572 86.544 202.368 115.06C230.252 117.22 258.732 100.892 276.088 79.876Z" fill="#E5E5E5"/>
</svg>
