<svg width="406" height="498" viewBox="0 0 406 498" fill="none" xmlns="http://www.w3.org/2000/svg">
<path d="M330.62 264.612V264.614C330.992 304.813 348.724 331.829 366.445 348.69C375.258 357.075 384.058 362.951 390.716 366.761C392.467 367.763 394.081 368.628 395.51 369.358C391.497 380.923 381.744 405.794 364.326 431.246L364.326 431.247C353.894 446.493 343.81 460.861 332.359 471.567C321.067 482.125 309.029 488.561 294.71 488.829C280.202 489.094 270.703 484.987 259.344 480.075L258.812 479.845C246.977 474.729 233.553 469.092 212.84 469.092C192.239 469.092 178.594 474.345 166.567 479.431C165.776 479.765 164.996 480.097 164.224 480.425C153.389 485.031 144.233 488.924 131.121 489.442C117.837 489.946 105.435 483.358 93.2365 471.925C81.025 460.479 70.0246 445.129 59.537 429.985C38.8626 400.093 20.4822 357.589 12.6677 313.338C4.84183 269.023 7.77404 223.967 28.3967 188.156C48.8351 152.677 85.2146 130.451 124.409 129.879L124.427 129.879L124.445 129.879C138.764 129.605 153.054 134.434 167.07 139.9C168.84 140.59 170.625 141.298 172.408 142.005C177.45 144.005 182.481 146 187.153 147.587C193.47 149.733 200.052 151.472 206.304 151.472C212.714 151.472 219.837 149.35 226.697 146.892C230.463 145.542 234.79 143.838 239.216 142.094C242.661 140.737 246.167 139.357 249.517 138.1C265.818 131.986 283.222 126.885 300.626 128.647L300.862 128.671L301.099 128.681C315.53 129.283 353.886 134.261 380.904 167.996C379.985 168.666 378.999 169.403 377.959 170.21C372.429 174.496 365.306 180.753 358.272 189.064C344.177 205.716 330.317 230.783 330.62 264.612ZM269.921 74.7808L269.92 74.7818C255.178 92.6321 232.25 106.277 209.766 107.201C209.173 83.7288 220.947 59.423 234.782 43.4299L234.798 43.4114L234.814 43.3929C249.615 26.071 273.522 12.7475 294.454 9.33424C294.701 33.228 284.597 57.0159 269.921 74.7808Z" fill="white" stroke="black" stroke-width="16"/>
</svg>
