<svg width="512" height="512" viewBox="0 0 512 512" fill="none" xmlns="http://www.w3.org/2000/svg">
<path fill-rule="evenodd" clip-rule="evenodd" d="M256 20.4121C122.612 20.4121 14.4482 128.552 14.4482 261.964C14.4482 368.692 83.6602 459.232 179.636 491.176C191.704 493.416 196.136 485.936 196.136 479.556C196.136 473.796 195.912 454.768 195.808 434.584C128.608 449.196 114.428 406.084 114.428 406.084C103.44 378.164 87.6082 370.74 87.6082 370.74C65.6882 355.748 89.2602 356.06 89.2602 356.06C113.512 357.76 126.288 380.952 126.288 380.952C147.832 417.872 182.796 407.2 196.58 401.032C198.748 385.42 205.008 374.76 211.916 368.728C158.264 362.628 101.86 341.912 101.86 249.356C101.86 222.984 111.3 201.436 126.752 184.516C124.24 178.436 115.972 153.868 129.088 120.596C129.088 120.596 149.368 114.104 195.528 145.356C214.8 140 235.468 137.308 256 137.216C276.52 137.308 297.2 139.992 316.508 145.348C362.612 114.096 382.868 120.588 382.868 120.588C396.016 153.856 387.748 178.428 385.24 184.508C400.728 201.428 410.1 222.976 410.1 249.348C410.1 342.124 353.592 362.548 299.804 368.532C308.472 376.028 316.192 390.732 316.192 413.264C316.192 445.584 315.912 471.596 315.912 479.552C315.912 485.98 320.264 493.512 332.504 491.14C428.424 459.164 497.556 368.652 497.556 261.964C497.552 128.56 389.4 20.4161 256 20.4161V20.4121Z" fill="#E5E5E5"/>
<path d="M105.936 367.224C105.404 368.424 103.516 368.784 101.796 367.964C100.036 367.18 99.0563 365.544 99.6243 364.34C100.144 363.1 102.036 362.76 103.784 363.588C105.544 364.376 106.544 366.028 105.932 367.228L105.936 367.224ZM115.72 378.14C114.572 379.208 112.32 378.712 110.792 377.02C109.208 375.34 108.912 373.088 110.084 372.004C111.276 370.94 113.46 371.444 115.044 373.124C116.62 374.828 116.932 377.06 115.724 378.144L115.72 378.14ZM125.248 392.048C123.768 393.08 121.344 392.116 119.848 389.968C118.368 387.816 118.368 385.236 119.888 384.208C121.38 383.176 123.768 384.108 125.288 386.236C126.76 388.416 126.76 390.996 125.248 392.044V392.048ZM138.292 405.492C136.972 406.952 134.148 406.56 132.084 404.572C129.976 402.624 129.388 399.852 130.712 398.396C132.056 396.932 134.892 397.34 136.968 399.316C139.076 401.26 139.712 404.036 138.3 405.488L138.292 405.492ZM156.292 413.296C155.704 415.188 152.992 416.048 150.252 415.24C147.52 414.412 145.732 412.2 146.292 410.288C146.852 408.38 149.584 407.488 152.34 408.348C155.072 409.172 156.86 411.372 156.292 413.296ZM176.064 414.74C176.132 416.732 173.812 418.38 170.944 418.42C168.052 418.488 165.712 416.872 165.684 414.912C165.684 412.9 167.956 411.272 170.844 411.216C173.712 411.164 176.068 412.764 176.068 414.736L176.064 414.74ZM194.456 411.612C194.8 413.552 192.804 415.548 189.952 416.08C187.152 416.6 184.552 415.392 184.192 413.468C183.848 411.476 185.88 409.48 188.68 408.964C191.536 408.472 194.096 409.644 194.456 411.616V411.612Z" fill="#E5E5E5"/>
</svg>
